<svg width="344" height="201" viewBox="0 0 344 201" fill="none" xmlns="http://www.w3.org/2000/svg">
<rect width="344" height="201" fill="#161616"/>
<path d="M172 49C154.336 49 140 63.336 140 81C140 98.664 154.336 113 172 113C189.664 113 204 98.664 204 81C204 63.336 189.664 49 172 49ZM170.49 51.6531C170.508 51.6522 170.526 51.6539 170.544 51.6531L170.68 53.8231C168.835 53.9111 167.038 54.1803 165.306 54.6191L165.844 56.7347C161.297 57.8863 157.248 60.2804 154.075 63.5374L152.517 62.0136C151.25 63.3134 150.117 64.7413 149.129 66.2721L147.306 65.068C152.285 57.3691 160.767 52.1464 170.49 51.6531ZM173.456 51.6531C183.201 52.1298 191.705 57.3549 196.694 65.068L194.871 66.2721C193.885 64.7451 192.753 63.3175 191.49 62.0204L189.932 63.5374C186.759 60.2787 182.704 57.8867 178.156 56.7347L178.694 54.6191C176.962 54.1803 175.165 53.9111 173.32 53.8231L173.456 51.6531ZM172 61.2449C172.925 61.2428 173.85 61.2993 174.612 61.4082L173.422 71.3129C175.924 71.6778 178.118 72.9875 179.633 74.8708L187.578 68.9116C188.543 70.1139 189.638 72.0001 190.211 73.4286L181.082 77.3333C181.541 78.467 181.796 79.7024 181.796 81C181.796 82.2501 181.564 83.4447 181.136 84.5442L190.19 88.415C189.632 89.852 188.549 91.7348 187.599 92.9456L179.707 87.0408C178.195 88.9671 175.976 90.3123 173.442 90.6871L174.612 100.429C173.088 100.663 170.912 100.66 169.388 100.442L170.558 90.6871C168.022 90.312 165.805 88.9626 164.293 87.034L156.422 92.9388C155.457 91.7365 154.362 89.8503 153.789 88.4218L162.864 84.5374C162.438 83.4395 162.204 82.2479 162.204 81C162.204 79.7002 162.458 78.4618 162.918 77.3265L153.81 73.4354C154.368 71.9984 155.451 70.1156 156.401 68.9048L164.367 74.8708C165.882 72.9875 168.076 71.6778 170.578 71.3129L169.388 61.4218C170.15 61.3044 171.075 61.247 172 61.2449ZM145.85 67.585L147.81 68.551C146.983 70.153 146.308 71.8443 145.81 73.6122L147.905 74.2041C147.296 76.3657 146.966 78.6444 146.966 81C146.966 83.3579 147.295 85.6392 147.905 87.8027L145.81 88.3946C146.307 90.1596 146.984 91.8495 147.81 93.449L145.85 94.415C143.781 90.3924 142.612 85.8321 142.612 81C142.612 76.1679 143.781 71.6076 145.85 67.585ZM198.15 67.585C200.219 71.6076 201.388 76.1679 201.388 81C201.388 85.8321 200.219 90.3924 198.15 94.415L196.19 93.449C197.016 91.849 197.693 90.1602 198.19 88.3946L196.095 87.8027C196.705 85.6392 197.034 83.3579 197.034 81C197.034 78.6444 196.704 76.3657 196.095 74.2041L198.19 73.6122C197.693 71.8448 197.016 70.1526 196.19 68.551L198.15 67.585ZM149.129 95.7279C150.118 97.2587 151.25 98.6865 152.517 99.9864L154.075 98.4626C157.248 101.72 161.297 104.114 165.844 105.265L165.306 107.381C167.038 107.82 168.835 108.089 170.68 108.177L170.544 110.347C160.799 109.87 152.295 104.645 147.306 96.932L149.129 95.7279ZM194.878 95.7279L196.694 96.932C191.705 104.645 183.201 109.87 173.456 110.347L173.32 108.177C175.165 108.089 176.962 107.82 178.694 107.381L178.156 105.265C182.704 104.113 186.759 101.721 189.932 98.4626L191.49 99.9796C192.755 98.6809 193.891 97.257 194.878 95.7279Z" fill="#E60C0D"/>
<path d="M96.624 147.288C95.6 147.288 94.576 147.096 93.552 146.712C92.544 146.328 91.64 145.768 90.84 145.032L92.856 142.608C93.416 143.088 94.04 143.48 94.728 143.784C95.416 144.088 96.08 144.24 96.72 144.24C97.456 144.24 98 144.104 98.352 143.832C98.72 143.56 98.904 143.192 98.904 142.728C98.904 142.232 98.696 141.872 98.28 141.648C97.88 141.408 97.336 141.144 96.648 140.856L94.608 139.992C94.08 139.768 93.576 139.472 93.096 139.104C92.616 138.72 92.224 138.248 91.92 137.688C91.616 137.128 91.464 136.472 91.464 135.72C91.464 134.856 91.696 134.072 92.16 133.368C92.64 132.664 93.296 132.104 94.128 131.688C94.976 131.272 95.944 131.064 97.032 131.064C97.928 131.064 98.824 131.24 99.72 131.592C100.616 131.944 101.4 132.456 102.072 133.128L100.272 135.36C99.76 134.96 99.248 134.656 98.736 134.448C98.224 134.224 97.656 134.112 97.032 134.112C96.424 134.112 95.936 134.24 95.568 134.496C95.216 134.736 95.04 135.08 95.04 135.528C95.04 136.008 95.264 136.368 95.712 136.608C96.176 136.848 96.744 137.104 97.416 137.376L99.432 138.192C100.376 138.576 101.128 139.104 101.688 139.776C102.248 140.448 102.528 141.336 102.528 142.44C102.528 143.304 102.296 144.104 101.832 144.84C101.368 145.576 100.696 146.168 99.816 146.616C98.936 147.064 97.872 147.288 96.624 147.288ZM108.8 147.288C107.328 147.288 106.272 146.864 105.632 146.016C105.008 145.168 104.696 144.056 104.696 142.68V137.856H103.064V135.24L104.888 135.096L105.296 131.928H108.224V135.096H111.08V137.856H108.224V142.632C108.224 143.304 108.36 143.792 108.632 144.096C108.92 144.384 109.296 144.528 109.76 144.528C109.952 144.528 110.144 144.504 110.336 144.456C110.544 144.408 110.728 144.352 110.888 144.288L111.44 146.856C111.136 146.952 110.76 147.048 110.312 147.144C109.88 147.24 109.376 147.288 108.8 147.288ZM115.935 147.288C114.847 147.288 113.983 146.944 113.343 146.256C112.703 145.552 112.383 144.696 112.383 143.688C112.383 142.44 112.911 141.464 113.967 140.76C115.023 140.056 116.727 139.584 119.079 139.344C119.047 138.816 118.887 138.4 118.599 138.096C118.327 137.776 117.863 137.616 117.207 137.616C116.711 137.616 116.207 137.712 115.695 137.904C115.183 138.096 114.639 138.36 114.063 138.696L112.791 136.368C113.543 135.904 114.343 135.528 115.191 135.24C116.055 134.952 116.951 134.808 117.879 134.808C119.399 134.808 120.567 135.248 121.383 136.128C122.199 137.008 122.607 138.36 122.607 140.184V147H119.727L119.487 145.776H119.391C118.895 146.224 118.359 146.592 117.783 146.88C117.223 147.152 116.607 147.288 115.935 147.288ZM117.135 144.552C117.535 144.552 117.879 144.464 118.167 144.288C118.471 144.096 118.775 143.848 119.079 143.544V141.456C117.831 141.616 116.967 141.872 116.487 142.224C116.007 142.56 115.767 142.96 115.767 143.424C115.767 143.808 115.887 144.096 116.127 144.288C116.383 144.464 116.719 144.552 117.135 144.552ZM125.591 147V135.096H128.471L128.711 137.184H128.807C129.239 136.384 129.759 135.792 130.367 135.408C130.975 135.008 131.583 134.808 132.191 134.808C132.527 134.808 132.807 134.832 133.031 134.88C133.255 134.912 133.447 134.968 133.607 135.048L133.031 138.096C132.823 138.032 132.615 137.984 132.407 137.952C132.215 137.92 131.991 137.904 131.735 137.904C131.287 137.904 130.815 138.072 130.319 138.408C129.839 138.728 129.439 139.288 129.119 140.088V147H125.591ZM141.638 147L138.734 131.352H142.358L143.438 138.672C143.534 139.488 143.638 140.312 143.75 141.144C143.862 141.96 143.966 142.784 144.062 143.616H144.158C144.318 142.784 144.47 141.96 144.614 141.144C144.774 140.312 144.934 139.488 145.094 138.672L146.774 131.352H149.774L151.454 138.672C151.614 139.456 151.766 140.264 151.91 141.096C152.07 141.928 152.23 142.768 152.39 143.616H152.486C152.598 142.768 152.702 141.936 152.798 141.12C152.91 140.288 153.022 139.472 153.134 138.672L154.214 131.352H157.598L154.814 147H150.374L148.838 139.896C148.71 139.288 148.59 138.68 148.478 138.072C148.382 137.448 148.294 136.848 148.214 136.272H148.118C148.022 136.848 147.918 137.448 147.806 138.072C147.71 138.68 147.598 139.288 147.47 139.896L146.006 147H141.638ZM162.201 147.288C161.113 147.288 160.249 146.944 159.609 146.256C158.969 145.552 158.649 144.696 158.649 143.688C158.649 142.44 159.177 141.464 160.233 140.76C161.289 140.056 162.993 139.584 165.345 139.344C165.313 138.816 165.153 138.4 164.865 138.096C164.593 137.776 164.129 137.616 163.473 137.616C162.977 137.616 162.473 137.712 161.961 137.904C161.449 138.096 160.905 138.36 160.329 138.696L159.057 136.368C159.809 135.904 160.609 135.528 161.457 135.24C162.321 134.952 163.217 134.808 164.145 134.808C165.665 134.808 166.833 135.248 167.649 136.128C168.465 137.008 168.873 138.36 168.873 140.184V147H165.993L165.753 145.776H165.657C165.161 146.224 164.625 146.592 164.049 146.88C163.489 147.152 162.873 147.288 162.201 147.288ZM163.401 144.552C163.801 144.552 164.145 144.464 164.433 144.288C164.737 144.096 165.041 143.848 165.345 143.544V141.456C164.097 141.616 163.233 141.872 162.753 142.224C162.273 142.56 162.033 142.96 162.033 143.424C162.033 143.808 162.153 144.096 162.393 144.288C162.649 144.464 162.985 144.552 163.401 144.552ZM171.857 147V135.096H174.737L174.977 137.184H175.073C175.505 136.384 176.025 135.792 176.633 135.408C177.241 135.008 177.849 134.808 178.457 134.808C178.793 134.808 179.073 134.832 179.297 134.88C179.521 134.912 179.713 134.968 179.873 135.048L179.297 138.096C179.089 138.032 178.881 137.984 178.673 137.952C178.481 137.92 178.257 137.904 178.001 137.904C177.553 137.904 177.081 138.072 176.585 138.408C176.105 138.728 175.705 139.288 175.385 140.088V147H171.857ZM184.736 147.288C183.952 147.288 183.144 147.136 182.312 146.832C181.496 146.528 180.784 146.128 180.176 145.632L181.76 143.424C182.304 143.824 182.824 144.136 183.32 144.36C183.832 144.568 184.336 144.672 184.832 144.672C185.36 144.672 185.744 144.584 185.984 144.408C186.224 144.216 186.344 143.968 186.344 143.664C186.344 143.392 186.224 143.168 185.984 142.992C185.76 142.816 185.464 142.656 185.096 142.512C184.728 142.352 184.336 142.192 183.92 142.032C183.44 141.84 182.96 141.6 182.48 141.312C182.016 141.024 181.624 140.656 181.304 140.208C180.984 139.744 180.824 139.184 180.824 138.528C180.824 137.424 181.24 136.528 182.072 135.84C182.92 135.152 184.024 134.808 185.384 134.808C186.296 134.808 187.096 134.968 187.784 135.288C188.488 135.592 189.088 135.936 189.584 136.32L188 138.432C187.584 138.112 187.168 137.864 186.752 137.688C186.336 137.512 185.92 137.424 185.504 137.424C184.592 137.424 184.136 137.736 184.136 138.36C184.136 138.744 184.36 139.04 184.808 139.248C185.272 139.44 185.808 139.648 186.416 139.872C186.928 140.048 187.424 140.28 187.904 140.568C188.4 140.84 188.808 141.208 189.128 141.672C189.464 142.12 189.632 142.712 189.632 143.448C189.632 144.52 189.216 145.432 188.384 146.184C187.552 146.92 186.336 147.288 184.736 147.288ZM196.149 142.176V139.68H202.053V142.176H196.149ZM211.131 147L208.227 131.352H211.851L212.931 138.672C213.027 139.488 213.131 140.312 213.243 141.144C213.355 141.96 213.459 142.784 213.555 143.616H213.651C213.811 142.784 213.963 141.96 214.107 141.144C214.267 140.312 214.427 139.488 214.587 138.672L216.267 131.352H219.267L220.947 138.672C221.107 139.456 221.259 140.264 221.403 141.096C221.563 141.928 221.723 142.768 221.883 143.616H221.979C222.091 142.768 222.195 141.936 222.291 141.12C222.403 140.288 222.515 139.472 222.627 138.672L223.707 131.352H227.091L224.307 147H219.867L218.331 139.896C218.203 139.288 218.083 138.68 217.971 138.072C217.875 137.448 217.787 136.848 217.707 136.272H217.611C217.515 136.848 217.411 137.448 217.299 138.072C217.203 138.68 217.091 139.288 216.963 139.896L215.499 147H211.131ZM228.974 147V135.096H232.502V147H228.974ZM230.726 133.344C230.134 133.344 229.654 133.176 229.286 132.84C228.918 132.504 228.734 132.056 228.734 131.496C228.734 130.936 228.918 130.488 229.286 130.152C229.654 129.816 230.134 129.648 230.726 129.648C231.318 129.648 231.798 129.816 232.166 130.152C232.534 130.488 232.718 130.936 232.718 131.496C232.718 132.056 232.534 132.504 232.166 132.84C231.798 133.176 231.318 133.344 230.726 133.344ZM235.607 147V130.176H239.039V139.824H239.135L242.903 135.096H246.743L242.567 139.992L247.055 147H243.239L240.551 142.368L239.039 144.072V147H235.607ZM248.755 147V135.096H252.283V147H248.755ZM250.507 133.344C249.915 133.344 249.435 133.176 249.067 132.84C248.699 132.504 248.515 132.056 248.515 131.496C248.515 130.936 248.699 130.488 249.067 130.152C249.435 129.816 249.915 129.648 250.507 129.648C251.099 129.648 251.579 129.816 251.947 130.152C252.315 130.488 252.499 130.936 252.499 131.496C252.499 132.056 252.315 132.504 251.947 132.84C251.579 133.176 251.099 133.344 250.507 133.344Z" fill="white"/>
</svg>
