<svg width="344" height="201" viewBox="0 0 344 201" fill="none" xmlns="http://www.w3.org/2000/svg">
<rect width="344" height="201" fill="#161616"/>
<path d="M172 49C154.336 49 140 63.336 140 81C140 98.664 154.336 113 172 113C189.664 113 204 98.664 204 81C204 63.336 189.664 49 172 49ZM170.49 51.6531C170.508 51.6522 170.526 51.6539 170.544 51.6531L170.68 53.8231C168.835 53.9111 167.038 54.1803 165.306 54.6191L165.844 56.7347C161.297 57.8863 157.248 60.2804 154.075 63.5374L152.517 62.0136C151.25 63.3134 150.117 64.7413 149.129 66.2721L147.306 65.068C152.285 57.3691 160.767 52.1464 170.49 51.6531ZM173.456 51.6531C183.201 52.1298 191.705 57.3549 196.694 65.068L194.871 66.2721C193.885 64.7451 192.753 63.3175 191.49 62.0204L189.932 63.5374C186.759 60.2787 182.704 57.8867 178.156 56.7347L178.694 54.6191C176.962 54.1803 175.165 53.9111 173.32 53.8231L173.456 51.6531ZM172 61.2449C172.925 61.2428 173.85 61.2993 174.612 61.4082L173.422 71.3129C175.924 71.6778 178.118 72.9875 179.633 74.8708L187.578 68.9116C188.543 70.1139 189.638 72.0001 190.211 73.4286L181.082 77.3333C181.541 78.467 181.796 79.7024 181.796 81C181.796 82.2501 181.564 83.4447 181.136 84.5442L190.19 88.415C189.632 89.852 188.549 91.7348 187.599 92.9456L179.707 87.0408C178.195 88.9671 175.976 90.3123 173.442 90.6871L174.612 100.429C173.088 100.663 170.912 100.66 169.388 100.442L170.558 90.6871C168.022 90.312 165.805 88.9626 164.293 87.034L156.422 92.9388C155.457 91.7365 154.362 89.8503 153.789 88.4218L162.864 84.5374C162.438 83.4395 162.204 82.2479 162.204 81C162.204 79.7002 162.458 78.4618 162.918 77.3265L153.81 73.4354C154.368 71.9984 155.451 70.1156 156.401 68.9048L164.367 74.8708C165.882 72.9875 168.076 71.6778 170.578 71.3129L169.388 61.4218C170.15 61.3044 171.075 61.247 172 61.2449ZM145.85 67.585L147.81 68.551C146.983 70.153 146.308 71.8443 145.81 73.6122L147.905 74.2041C147.296 76.3657 146.966 78.6444 146.966 81C146.966 83.3579 147.295 85.6392 147.905 87.8027L145.81 88.3946C146.307 90.1596 146.984 91.8495 147.81 93.449L145.85 94.415C143.781 90.3924 142.612 85.8321 142.612 81C142.612 76.1679 143.781 71.6076 145.85 67.585ZM198.15 67.585C200.219 71.6076 201.388 76.1679 201.388 81C201.388 85.8321 200.219 90.3924 198.15 94.415L196.19 93.449C197.016 91.849 197.693 90.1602 198.19 88.3946L196.095 87.8027C196.705 85.6392 197.034 83.3579 197.034 81C197.034 78.6444 196.704 76.3657 196.095 74.2041L198.19 73.6122C197.693 71.8448 197.016 70.1526 196.19 68.551L198.15 67.585ZM149.129 95.7279C150.118 97.2587 151.25 98.6865 152.517 99.9864L154.075 98.4626C157.248 101.72 161.297 104.114 165.844 105.265L165.306 107.381C167.038 107.82 168.835 108.089 170.68 108.177L170.544 110.347C160.799 109.87 152.295 104.645 147.306 96.932L149.129 95.7279ZM194.878 95.7279L196.694 96.932C191.705 104.645 183.201 109.87 173.456 110.347L173.32 108.177C175.165 108.089 176.962 107.82 178.694 107.381L178.156 105.265C182.704 104.113 186.759 101.721 189.932 98.4626L191.49 99.9796C192.755 98.6809 193.891 97.257 194.878 95.7279Z" fill="#E60C0D"/>
<path d="M110.848 147V131.352H114.712L117.232 138.312C117.392 138.776 117.544 139.256 117.688 139.752C117.832 140.232 117.984 140.712 118.144 141.192H118.24C118.4 140.712 118.544 140.232 118.672 139.752C118.816 139.256 118.968 138.776 119.128 138.312L121.6 131.352H125.44V147H122.224V141.264C122.224 140.88 122.24 140.456 122.272 139.992C122.304 139.528 122.344 139.064 122.392 138.6C122.44 138.12 122.488 137.656 122.536 137.208C122.584 136.744 122.632 136.32 122.68 135.936H122.584L121.312 139.656L119.08 145.632H117.136L114.904 139.656L113.656 135.936H113.56C113.608 136.32 113.656 136.744 113.704 137.208C113.752 137.656 113.8 138.12 113.848 138.6C113.896 139.064 113.936 139.528 113.968 139.992C114 140.456 114.016 140.88 114.016 141.264V147H110.848ZM133.953 147.288C133.201 147.288 132.473 147.152 131.769 146.88C131.065 146.592 130.441 146.184 129.897 145.656C129.369 145.128 128.945 144.48 128.625 143.712C128.305 142.928 128.145 142.04 128.145 141.048C128.145 140.056 128.305 139.176 128.625 138.408C128.945 137.624 129.369 136.968 129.897 136.44C130.441 135.912 131.065 135.512 131.769 135.24C132.473 134.952 133.201 134.808 133.953 134.808C134.705 134.808 135.425 134.952 136.113 135.24C136.817 135.512 137.433 135.912 137.961 136.44C138.505 136.968 138.937 137.624 139.257 138.408C139.577 139.176 139.737 140.056 139.737 141.048C139.737 142.04 139.577 142.928 139.257 143.712C138.937 144.48 138.505 145.128 137.961 145.656C137.433 146.184 136.817 146.592 136.113 146.88C135.425 147.152 134.705 147.288 133.953 147.288ZM133.953 144.432C134.673 144.432 135.217 144.128 135.585 143.52C135.953 142.912 136.137 142.088 136.137 141.048C136.137 140.008 135.953 139.184 135.585 138.576C135.217 137.968 134.673 137.664 133.953 137.664C133.217 137.664 132.665 137.968 132.297 138.576C131.945 139.184 131.769 140.008 131.769 141.048C131.769 142.088 131.945 142.912 132.297 143.52C132.665 144.128 133.217 144.432 133.953 144.432ZM144.702 147L140.694 135.096H144.246L145.782 140.712C145.942 141.304 146.094 141.912 146.238 142.536C146.398 143.144 146.558 143.76 146.718 144.384H146.814C146.958 143.76 147.102 143.144 147.246 142.536C147.406 141.912 147.566 141.304 147.726 140.712L149.286 135.096H152.67L148.782 147H144.702ZM154.529 147V135.096H158.057V147H154.529ZM156.281 133.344C155.689 133.344 155.201 133.176 154.817 132.84C154.433 132.488 154.241 132.04 154.241 131.496C154.241 130.952 154.433 130.512 154.817 130.176C155.201 129.84 155.689 129.672 156.281 129.672C156.889 129.672 157.377 129.84 157.745 130.176C158.129 130.512 158.321 130.952 158.321 131.496C158.321 132.04 158.129 132.488 157.745 132.84C157.377 133.176 156.889 133.344 156.281 133.344ZM166.49 147.288C165.642 147.288 164.85 147.152 164.114 146.88C163.378 146.592 162.738 146.184 162.194 145.656C161.65 145.112 161.226 144.456 160.922 143.688C160.618 142.92 160.466 142.04 160.466 141.048C160.466 140.088 160.626 139.224 160.946 138.456C161.266 137.672 161.682 137.016 162.194 136.488C162.722 135.944 163.322 135.528 163.994 135.24C164.666 134.952 165.362 134.808 166.082 134.808C166.93 134.808 167.666 134.952 168.29 135.24C168.93 135.528 169.458 135.928 169.874 136.44C170.306 136.952 170.626 137.56 170.834 138.264C171.042 138.952 171.146 139.704 171.146 140.52C171.146 140.84 171.13 141.144 171.098 141.432C171.066 141.72 171.034 141.936 171.002 142.08H163.874C164.034 142.944 164.386 143.584 164.93 144C165.49 144.4 166.17 144.6 166.97 144.6C167.818 144.6 168.674 144.336 169.538 143.808L170.714 145.944C170.106 146.36 169.426 146.688 168.674 146.928C167.938 147.168 167.21 147.288 166.49 147.288ZM163.85 139.752H168.146C168.146 139.08 167.994 138.536 167.69 138.12C167.386 137.704 166.874 137.496 166.154 137.496C165.594 137.496 165.098 137.68 164.666 138.048C164.25 138.416 163.978 138.984 163.85 139.752ZM177.86 142.176V139.68H183.764V142.176H177.86ZM192.842 147L189.938 131.352H193.562L194.642 138.672C194.738 139.488 194.842 140.312 194.954 141.144C195.066 141.96 195.17 142.784 195.266 143.616H195.362C195.522 142.784 195.674 141.96 195.818 141.144C195.978 140.312 196.138 139.488 196.298 138.672L197.978 131.352H200.978L202.658 138.672C202.818 139.472 202.97 140.288 203.114 141.12C203.274 141.936 203.434 142.768 203.594 143.616H203.69C203.802 142.768 203.906 141.936 204.002 141.12C204.114 140.304 204.226 139.488 204.338 138.672L205.418 131.352H208.802L206.018 147H201.578L200.042 139.896C199.914 139.288 199.794 138.68 199.682 138.072C199.586 137.448 199.498 136.848 199.418 136.272H199.322C199.226 136.848 199.122 137.448 199.01 138.072C198.914 138.68 198.802 139.288 198.674 139.896L197.21 147H192.842ZM210.685 147V135.096H214.213V147H210.685ZM212.437 133.344C211.845 133.344 211.357 133.176 210.973 132.84C210.589 132.488 210.397 132.04 210.397 131.496C210.397 130.952 210.589 130.512 210.973 130.176C211.357 129.84 211.845 129.672 212.437 129.672C213.045 129.672 213.533 129.84 213.901 130.176C214.285 130.512 214.477 130.952 214.477 131.496C214.477 132.04 214.285 132.488 213.901 132.84C213.533 133.176 213.045 133.344 212.437 133.344ZM217.318 147V130.176H220.75V139.824H220.846L224.614 135.096H228.454L224.278 139.992L228.766 147H224.95L222.262 142.368L220.75 144.072V147H217.318ZM230.466 147V135.096H233.994V147H230.466ZM232.218 133.344C231.626 133.344 231.138 133.176 230.754 132.84C230.37 132.488 230.178 132.04 230.178 131.496C230.178 130.952 230.37 130.512 230.754 130.176C231.138 129.84 231.626 129.672 232.218 129.672C232.826 129.672 233.314 129.84 233.682 130.176C234.066 130.512 234.258 130.952 234.258 131.496C234.258 132.04 234.066 132.488 233.682 132.84C233.314 133.176 232.826 133.344 232.218 133.344Z" fill="white"/>
</svg>
